<svg width="165" height="69" viewBox="0 0 165 69" fill="none" xmlns="http://www.w3.org/2000/svg">
<path d="M14.361 31.2346H19.0223C18.9037 34.3874 18.6664 36.7816 18.3019 38.4173C17.9417 40.0529 17.4798 41.1462 16.9205 41.6929C16.3611 42.2438 15.6492 42.5149 14.7848 42.5149C13.522 42.5149 12.5813 41.9853 11.9668 40.9216C11.3481 39.858 11.0388 38.252 11.0388 36.1036V15.2591C11.0388 13.1361 11.3608 11.5597 12.0007 10.53C12.6448 9.50454 13.6194 8.98756 14.9246 8.98756C15.717 8.98756 16.3738 9.18672 16.8866 9.58505C17.3993 9.98338 17.7977 10.708 18.0773 11.7589C18.357 12.8098 18.4969 14.2802 18.4969 16.1744V18.8356L29.0059 17.3313V15.0557C29.0059 10.0597 27.8067 6.38995 25.4168 4.05507C23.0225 1.71595 19.4418 0.546387 14.6788 0.546387C9.67854 0.546387 5.9834 1.90664 3.58919 4.62713C1.19499 7.34763 0 11.5131 0 17.1152V34.7687C0 40.2097 0.91107 44.2735 2.73321 46.9601C4.55535 49.6467 7.29704 50.99 10.9667 50.99C12.6957 50.99 14.1618 50.6807 15.3653 50.062C16.5688 49.4433 17.607 48.5153 18.4841 47.2779C19.3613 46.0406 20.1707 44.4176 20.9207 42.409L21.692 42.6887C20.7343 45.655 20.2554 48.0026 20.2554 49.7315L20.2893 50.4688H29.2221V23.1748H14.361V31.2346Z" fill="white"/>
<path d="M39.4302 1.42362L30.6713 50.4646H41.1803L41.8838 45.8542H50.5411L51.2318 50.4646H62.6858L53.6853 1.42362H39.4302ZM43.0279 38.3919L44.7568 27.0989L44.9306 25.2089C45.1891 22.6155 45.384 20.4629 45.5281 18.7467C45.6721 17.0305 45.7738 15.1575 45.8416 13.1235H46.579C46.7654 16.8822 47.1171 21.1917 47.6299 26.0479L47.7358 27.1328L49.4266 38.3919H43.0279Z" fill="white"/>
<path d="M87.501 13.4031C86.8696 17.6068 86.3568 21.2383 85.9585 24.2978C85.5602 27.3573 85.1746 30.8618 84.8017 34.8069H84.1364C83.7846 30.8152 83.399 27.2599 82.9795 24.1411C82.56 21.0222 82.0091 17.4457 81.3311 13.4031L78.1445 1.42362H63.8174V50.4646H74.2544L74.2205 30.9169C74.2205 26.6454 74.0807 22.4037 73.801 18.2L74.5722 18.128L80.0387 50.4604H88.6917L94.298 18.1619L95.0353 18.2339C94.7768 22.1791 94.6285 26.4081 94.5776 30.9126L94.4717 50.4604H105.155V1.42362H90.5477L87.501 13.4031Z" fill="white"/>
<path d="M119.571 28.9083H130.758V21.0646H119.571V10.0978H131.444V1.19902H108.642V50.2443H131.97V41.3454H119.571V28.9083Z" fill="white"/>
<path d="M163.908 1.19922H152.941L145.093 21.6919L144.428 21.4801C144.894 18.446 145.216 15.8738 145.39 13.772C145.563 11.6702 145.652 9.48784 145.652 7.22076V1.19922H134.724V50.2402H145.652V35.1461L148.174 29.8916L152.551 50.2445H164.217L155.67 19.6283L163.908 1.19922Z" fill="white"/>
<path d="M3.18645 64H4.23087V57.8897H6.18305V57.0307H1.23426V57.8897H3.18645V64ZM8.33305 61.0717H9.57269L10.9685 64H12.1203L10.5976 60.9741C11.5542 60.7594 11.9739 60.164 11.9739 59.0122C11.9739 58.3387 11.8177 57.8799 11.4761 57.5383C11.1149 57.1771 10.6269 57.0307 9.76791 57.0307H7.28863V64H8.33305V61.0717ZM8.31353 60.242V57.8701H9.6703C10.5488 57.8701 10.9392 58.2313 10.9392 59.061C10.9392 59.8711 10.5683 60.242 9.72886 60.242H8.31353ZM17.3057 62.5456L17.7938 64H18.926L16.3882 57.0307H15.3828L12.845 64H13.9772L14.4653 62.5456H17.3057ZM17.0519 61.7062H14.7191L15.8904 58.2996L17.0519 61.7062ZM19.5448 64H20.56V58.7877L23.664 64H24.6791V57.0307H23.664V62.243L20.56 57.0307H19.5448V64ZM28.7962 61.0717H30.1042V61.6086C30.1042 62.7116 29.6259 63.2484 28.64 63.2484C27.5761 63.2484 27.1759 62.692 27.1759 61.1889V59.8614C27.1759 58.3679 27.5761 57.8018 28.6303 57.8018C29.4014 57.8018 29.8602 58.1727 29.9578 58.8853L30.9241 58.8169C30.8558 57.5968 30.0456 56.9526 28.5912 56.9526C27.7128 56.9526 27.1173 57.1869 26.6781 57.6944C26.2779 58.1532 26.1315 58.7193 26.1315 59.793V61.2474C26.1315 62.243 26.2486 62.7799 26.5805 63.2289C27.01 63.8243 27.6542 64.0976 28.6596 64.0976C29.5576 64.0976 30.192 63.8438 30.6313 63.3167C31.0022 62.8677 31.1388 62.3504 31.1388 61.3841V60.2616H28.7962V61.0717ZM35.4661 64H36.5106V57.8897H38.4627V57.0307H33.514V57.8897H35.4661V64ZM39.5586 64H40.603V60.9058H43.2775V64H44.3219V57.0307H43.2775V60.0468H40.603V57.0307H39.5586V64ZM45.783 61.3645C45.783 62.2821 45.9196 62.8189 46.2613 63.2582C46.7005 63.8341 47.335 64.0976 48.3013 64.0976C49.1895 64.0976 49.7752 63.8829 50.234 63.3753C50.6537 62.9263 50.8099 62.3602 50.8099 61.3645V59.6661C50.8099 58.7486 50.6732 58.2118 50.3316 57.7725C49.8923 57.1966 49.2579 56.9331 48.3013 56.9331C47.4033 56.9331 46.8176 57.1478 46.3589 57.6554C45.9392 58.1142 45.783 58.6705 45.783 59.6661V61.3645ZM49.7654 61.2669C49.7654 62.6628 49.3262 63.2484 48.3013 63.2484C47.2666 63.2484 46.8274 62.6628 46.8274 61.2669V59.7638C46.8274 58.3679 47.2666 57.7823 48.3013 57.7823C49.3262 57.7823 49.7654 58.3679 49.7654 59.7638V61.2669ZM48.2915 55.5373L48.9162 56.3181H49.9119L48.6332 54.9321H47.9499L46.681 56.3181H47.6766L48.2915 55.5373ZM52.2725 64H53.2877V58.7877L56.3917 64H57.4068V57.0307H56.3917V62.243L53.2877 57.0307H52.2725V64ZM61.5239 61.0717H62.8319V61.6086C62.8319 62.7116 62.3536 63.2484 61.3677 63.2484C60.3038 63.2484 59.9036 62.692 59.9036 61.1889V59.8614C59.9036 58.3679 60.3038 57.8018 61.358 57.8018C62.1291 57.8018 62.5879 58.1727 62.6855 58.8853L63.6518 58.8169C63.5835 57.5968 62.7733 56.9526 61.3189 56.9526C60.4405 56.9526 59.845 57.1869 59.4058 57.6944C59.0056 58.1532 58.8592 58.7193 58.8592 59.793V61.2474C58.8592 62.243 58.9763 62.7799 59.3082 63.2289C59.7377 63.8243 60.3819 64.0976 61.3873 64.0976C62.2853 64.0976 62.9197 63.8438 63.359 63.3167C63.7299 62.8677 63.8665 62.3504 63.8665 61.3841V60.2616H61.5239V61.0717ZM68.1938 64H69.2383V57.8897H71.1904V57.0307H66.2417V57.8897H68.1938V64ZM72.2863 64H73.3307V57.0307H72.2863V64ZM74.9591 64H75.9742V58.7877L79.0782 64H80.0933V57.0307H79.0782V62.243L75.9742 57.0307H74.9591V64ZM83.4313 60.0566H82.6504V60.896H83.4313V64H85.7251C87.482 64.0195 88.3508 63.1215 88.302 61.3255V59.7052C88.3508 57.9092 87.482 57.0014 85.7251 57.0307H83.4313V60.0566ZM84.4757 60.0566V57.8701H85.5396C86.7597 57.8409 87.2478 58.3875 87.2575 59.793V61.2279C87.2478 62.6432 86.7597 63.1898 85.5396 63.1606H84.4757V60.896H85.9398V60.0566H84.4757ZM89.774 64H90.8184V57.0307H89.774V64ZM92.4565 64H96.6635V63.141H93.4912V60.9058H96.1657V60.0468H93.4912V57.8897H96.6342V57.0307H92.4565V64ZM94.5649 55.5373L95.1896 56.3181H96.1754L94.9065 54.9321H94.2233L92.9446 56.3181H93.9402L94.5649 55.5373ZM94.1061 65.9522H95.0725V64.8394H94.1061V65.9522ZM97.8649 64H98.88V58.7877L101.984 64H102.999V57.0307H101.984V62.243L98.88 57.0307H97.8649V64ZM107.586 64H108.631V57.8897H110.583V57.0307H105.634V57.8897H107.586V64ZM111.478 57.0307V61.4231C111.478 62.3504 111.556 62.7799 111.81 63.1703C112.23 63.8048 112.893 64.0976 113.928 64.0976C114.894 64.0976 115.499 63.8536 115.939 63.2875C116.271 62.8775 116.368 62.4285 116.368 61.4231V59.1488C116.876 58.8853 117.051 58.7877 117.247 58.651C117.793 58.2606 118.028 57.8701 118.028 57.3528C118.028 57.1966 118.018 57.099 117.959 56.9233H117.081C117.188 57.1283 117.227 57.265 117.227 57.4699C117.227 57.9287 117.003 58.2118 116.368 58.5046V57.0307H115.324V61.4231C115.324 62.0088 115.275 62.3406 115.158 62.5944C114.933 63.0532 114.562 63.2484 113.928 63.2484C113.323 63.2484 112.981 63.0825 112.737 62.6823C112.581 62.409 112.522 62.0966 112.522 61.4231V57.0307H111.478ZM114.416 56.4353C114.426 56.1327 114.436 56.0839 114.592 55.8887C114.865 55.5568 114.904 55.4885 114.904 55.264C114.904 54.7954 114.562 54.5221 113.977 54.5221C113.684 54.5221 113.489 54.5612 113.147 54.6783L113.313 55.2347C113.547 55.1273 113.674 55.098 113.811 55.098C113.987 55.098 114.084 55.1761 114.084 55.303C114.084 55.3811 114.055 55.4592 113.996 55.547C113.752 55.8789 113.733 55.9375 113.723 56.3084V56.4353H114.416ZM121.439 64H122.483V57.8897H124.435V57.0307H119.486V57.8897H121.439V64ZM125.193 61.3645C125.193 62.2821 125.33 62.8189 125.672 63.2582C126.111 63.8341 126.745 64.0976 127.712 64.0976C128.6 64.0976 129.186 63.8829 129.644 63.3753C130.064 62.9263 130.22 62.3602 130.22 61.3645V59.6661C130.22 58.7486 130.084 58.2118 129.742 57.7725C129.303 57.1966 128.668 56.9331 127.712 56.9331C126.814 56.9331 126.228 57.1478 125.769 57.6554C125.35 58.1142 125.193 58.6705 125.193 59.6661V61.3645ZM129.176 61.2669C129.176 62.6628 128.737 63.2484 127.712 63.2484C126.677 63.2484 126.238 62.6628 126.238 61.2669V59.7638C126.238 58.3679 126.677 57.7823 127.712 57.7823C128.737 57.7823 129.176 58.3679 129.176 59.7638V61.2669ZM128.005 55.3713C128.014 55.1664 128.014 55.1371 128.141 55.0199C128.356 54.7954 128.395 54.7271 128.395 54.5612C128.395 54.2098 128.102 53.995 127.614 53.995C127.351 53.995 127.165 54.0341 126.911 54.1219L127.058 54.5709C127.243 54.4831 127.351 54.4538 127.468 54.4538C127.614 54.4538 127.692 54.4929 127.692 54.5709C127.692 54.6197 127.663 54.6881 127.624 54.7369C127.409 54.9907 127.399 55.0297 127.39 55.3713H128.005ZM127.692 56.0448L128.297 56.5719H129.244L128.014 55.5275H127.36L126.14 56.5719H127.077L127.692 56.0448ZM131.683 64H132.698V58.7877L135.802 64H136.817V57.0307H135.802V62.243L132.698 57.0307H131.683V64ZM140.934 61.0717H142.242V61.6086C142.242 62.7116 141.764 63.2484 140.778 63.2484C139.714 63.2484 139.314 62.692 139.314 61.1889V59.8614C139.314 58.3679 139.714 57.8018 140.768 57.8018C141.54 57.8018 141.998 58.1727 142.096 58.8853L143.062 58.8169C142.994 57.5968 142.184 56.9526 140.729 56.9526C139.851 56.9526 139.256 57.1869 138.816 57.6944C138.416 58.1532 138.27 58.7193 138.27 59.793V61.2474C138.27 62.243 138.387 62.7799 138.719 63.2289C139.148 63.8243 139.792 64.0976 140.798 64.0976C141.696 64.0976 142.33 63.8438 142.769 63.3167C143.14 62.8677 143.277 62.3504 143.277 61.3841V60.2616H140.934V61.0717ZM146.355 64H147.399V60.9058H150.074V64H151.118V57.0307H150.074V60.0468H147.399V57.0307H146.355V64ZM157.88 56.9233C157.987 57.1185 158.026 57.265 158.026 57.4602C158.026 57.8213 157.87 58.0556 157.431 58.3484C157.079 57.3919 156.318 56.9331 155.088 56.9331C154.2 56.9331 153.614 57.1576 153.155 57.6554C152.736 58.1142 152.579 58.6705 152.579 59.6661V61.3645C152.579 62.2821 152.716 62.8189 153.058 63.2582C153.497 63.8341 154.131 64.0976 155.098 64.0976C155.986 64.0976 156.572 63.8829 157.03 63.3753C157.45 62.9263 157.606 62.3602 157.606 61.3645V59.6661C157.606 59.3831 157.596 59.2074 157.548 58.9341C157.928 58.7096 158.065 58.6315 158.25 58.4753C158.621 58.1727 158.826 57.7628 158.826 57.3333C158.826 57.1771 158.807 57.0893 158.758 56.9233H157.88ZM156.562 61.2669C156.562 62.6628 156.123 63.2484 155.098 63.2484C154.063 63.2484 153.624 62.6628 153.624 61.2669V59.7638C153.624 58.3777 154.063 57.792 155.098 57.792C156.123 57.792 156.562 58.3777 156.562 59.7638V61.2669ZM154.502 65.9522H155.469V64.8394H154.502V65.9522ZM160.428 61.3841H161.677C162.517 61.3841 163.015 61.2474 163.385 60.9155C163.805 60.5349 163.991 59.998 163.991 59.1976C163.991 58.4558 163.834 57.9677 163.473 57.5871C163.093 57.1869 162.595 57.0307 161.677 57.0307H159.383V64H160.428V61.3841ZM160.408 60.5349V57.8701H161.677C162.566 57.8701 162.956 58.2703 162.956 59.2074C162.956 60.1249 162.566 60.5349 161.677 60.5349H160.408Z" fill="white"/>
</svg>
